<svg width="100%" height="100%" viewBox="0 0 175 175" fill="none" xmlns="http://www.w3.org/2000/svg">
<path d="M78.7172 174.408C58.4106 172.374 38.9301 162.99 24.8501 148.46C17.696 141.077 13.2633 134.736 8.96137 125.732C3.1139 113.494 0.289734 100.879 0.289734 86.9988C0.289734 72.9629 3.00683 60.9913 8.98831 48.673C14.625 37.0647 21.4167 28.5778 31.9257 20.0103C44.4768 9.77803 58.0219 4.07031 77.2902 0.894293C83.2348 -0.085572 94.7524 -0.0765131 100.513 0.912559C117.117 3.76344 132.568 10.7552 144.63 20.8759C160.219 33.9559 170.859 53.512 173.973 74.8104C174.948 81.477 174.957 93.5345 173.992 99.8421C170.951 119.713 162.541 136.396 148.642 150.132C130.73 167.834 104.389 176.979 78.7172 174.408ZM98.8995 146.714C110.545 144.467 125.127 137.765 134.779 130.226C151.164 117.426 155.826 101.528 150.023 78.2366C149.133 74.6632 146.681 68.0466 145.719 66.6239C144.805 65.2705 145.104 63.6164 146.777 60.772C148.8 57.3317 149.374 55.2141 149.398 51.112C149.444 43.0187 144.605 35.8062 137.068 32.7342C133.216 31.1642 126.879 30.8773 122.89 32.0924C118.042 33.5689 114.114 36.6625 111.735 40.8772L110.488 43.0866L108.363 42.5142C96.3759 39.2848 80.6417 39.0619 69.2485 41.96C64.7979 43.092 64.2757 43.0318 62.9354 41.232C57.3665 33.7541 50.0866 30.2596 42.359 31.355C31.138 32.9456 24.1263 41.5445 25.0792 52.5463C25.4493 56.8201 25.945 58.4691 27.7826 61.5407C28.6627 63.0118 29.3812 64.6631 29.3791 65.2102C29.3771 65.7573 28.5336 68.2232 27.5049 70.6899C23.463 80.3813 22.3788 85.5719 22.3997 95.1318C22.43 108.981 26.0375 117.533 35.7126 126.691C46.4458 136.851 66.9064 146.021 82.5906 147.7C86.0198 148.067 94.5661 147.55 98.8995 146.714Z" fill="#478FC4"/>
<path d="M64.4378 85.1973C63.8721 85.0209 60.1108 83.0777 56.0795 80.8793C52.0481 78.6808 47.8323 76.43 46.7111 75.8773C40.8665 72.9966 39.45 71.3294 40.5698 68.6493C41.8604 65.5604 44.1817 65.726 50.6004 69.3653C53.1705 70.8224 58.0253 73.4528 61.3891 75.2106C68.4031 78.8758 69.3396 79.6352 69.3396 81.6572C69.3396 84.2115 66.9077 85.9679 64.4378 85.1973Z" fill="#478FC4"/>
<path d="M84.6433 113.96C83.2937 112.61 83.1191 110.834 83.2813 100.11L83.4221 90.7973L80.9677 91.0398C76.3699 91.4941 73.8245 90.1952 73.8245 87.3947C73.8245 83.6912 74.3753 83.5332 87.2859 83.5332C98.0997 83.5332 99.0794 83.6541 100.212 85.1288C100.947 86.086 100.839 88.6136 100.021 89.6243C99.0892 90.7746 96.2128 91.3995 93.3633 91.0708L91.089 90.8084L91.2393 100.419C91.3989 110.625 91.1565 112.692 89.6335 114.111C88.3743 115.284 85.8924 115.209 84.6433 113.96Z" fill="#478FC4"/>
<path d="M107.403 85.1675C106.154 84.6635 105.219 83.1541 105.219 81.6424C105.219 79.6374 107.911 77.5964 116.15 73.3529C120.117 71.31 124.703 68.9118 126.34 68.0237C129.876 66.1056 131.694 65.9373 133.15 67.393C134.481 68.7244 134.775 70.1392 134.023 71.5942C133.542 72.5245 131.655 73.7281 125.53 77.012C121.198 79.3341 116.469 81.9566 115.02 82.84C112.465 84.3968 109.674 85.5989 108.735 85.546C108.483 85.5317 107.884 85.3614 107.403 85.1675Z" fill="#478FC4"/>
</svg>
