<?xml version="1.0" encoding="UTF-8" standalone="no"?>
<!-- Created with Inkscape (http://www.inkscape.org/) -->

<svg
   version="1.1"
   id="svg1"
   width="100%"
   height="100%"
   viewBox="0 0 129 129"
   xmlns="http://www.w3.org/2000/svg"
   xmlns:svg="http://www.w3.org/2000/svg">
  <defs
     id="defs1" />
  <g
     id="g1">
    <g
       id="g5"
       transform="matrix(0.20587942,0,0,0.21191943,-34.407139,-43.390195)">
      <rect
         style="fill:#478fc4;fill-opacity:1;stroke:none;stroke-width:71.8124;stroke-linecap:square;stroke-opacity:1;paint-order:markers fill stroke"
         id="rect2"
         width="684.98621"
         height="668.28882"
         x="149.6709"
         y="184.96832" />
      <g
         id="g2"
         transform="matrix(0.78599556,0,0,0.78599556,102.8105,108.95169)">
        <path
           style="opacity:1;fill:#f0f0f0;fill-opacity:1;stroke:#f0f0f0;stroke-width:15;stroke-linecap:square;stroke-dasharray:none;paint-order:markers fill stroke"
           d="m 219.02195,790.86466 c -12.05921,-3.7032 -21.47294,-15.68317 -25.86215,-32.91235 -3.85493,-15.1319 -5.37683,-29.69418 -6.41676,-61.39837 -0.28264,-8.61695 -1.07974,-22.68359 -1.77132,-31.25919 -4.71644,-58.48383 -3.36083,-183.40201 2.64762,-243.97489 1.77273,-17.87142 3.16664,-28.35692 7.65548,-57.58744 8.04433,-52.38314 13.7764,-74.87525 24.98927,-98.05549 4.11428,-8.50542 5.99603,-11.36449 10.31165,-15.66717 12.30345,-12.2666 20.99543,-14.47966 70.488,-17.9469 10.24717,-0.71788 20.53669,-1.51273 22.8656,-1.76634 2.3289,-0.2536 35.10293,-0.80185 72.83117,-1.21833 68.81158,-0.75959 81.93774,-1.2555 106.2827,-4.01535 9.85877,-1.11763 19.45126,-1.47045 38.53277,-1.41727 33.22824,0.0926 83.79286,2.41505 99.5077,4.57041 17.03661,2.33663 49.60617,8.15014 59.33709,10.59138 22.91603,5.74904 36.95113,13.92153 41.19333,23.98647 5.76222,13.67129 -7.15468,31.39884 -28.54612,39.17754 -27.15896,9.87598 -52.79423,13.1871 -140.5811,18.15784 -50.01997,2.83227 -61.8198,3.75208 -87.65147,6.83249 -47.81855,5.70233 -72.38189,14.91105 -89.94881,33.72153 -16.03655,17.17177 -21.00052,43.08259 -11.75075,61.33614 10.0531,19.83883 33.294,30.59279 70.78866,32.75514 24.48372,1.412 35.31628,6.02061 40.32652,17.15653 4.01854,8.93175 4.61812,23.17628 1.48779,35.34654 -3.98382,15.4885 -15.66015,27.17023 -32.49869,32.51374 -11.49651,3.64827 -19.48038,4.44441 -51.65932,5.15139 -33.8032,0.74266 -36.44422,1.097 -46.00299,6.17218 -2.71128,1.43954 -6.42293,4.31387 -8.24812,6.38739 -7.04459,8.00307 -9.71367,16.80282 -13.02171,42.93145 -4.85996,38.3865 -22.57665,88.2035 -45.80402,128.79491 -7.23148,12.63749 -19.85084,31.29935 -26.09354,38.58784 -10.52179,12.28441 -23.37518,20.46264 -36.30858,23.10209 -7.92896,1.61814 -11.67352,1.60631 -17.0799,-0.0539 z"
           id="path4" />
        <path
           style="opacity:1;fill:#f0f0f0;fill-opacity:1;stroke:#f0f0f0;stroke-width:15;stroke-linecap:square;stroke-dasharray:none;paint-order:markers fill stroke"
           d="m 529.70915,793.88919 c -46.00072,-2.93863 -84.222,-16.76735 -107.31414,-38.82698 -8.67537,-8.28747 -13.59517,-14.89863 -18.01618,-24.20987 -8.98408,-18.92169 -8.20749,-37.42688 2.4629,-58.68836 7.38152,-14.70818 14.4049,-23.3313 40.83406,-50.13496 23.23294,-23.56217 31.87299,-33.67837 42.15691,-49.35941 14.72037,-22.44578 23.96828,-42.68188 30.19301,-66.06773 3.54994,-13.33691 4.8641,-20.97833 6.36491,-37.0102 1.99932,-21.35695 3.39943,-27.91966 7.85939,-36.83902 14.72623,-29.45062 50.53619,-50.47326 101.57482,-59.63067 16.5695,-2.97292 26.5144,-3.6489 38.72551,-2.63229 27.49103,2.2887 47.2922,11.13508 64.16544,28.66659 28.46116,29.57146 42.51328,77.70968 39.63607,135.78086 -2.57478,51.96721 -13.08601,94.12621 -33.53818,134.51682 -8.2223,16.23805 -14.96787,27.20833 -25.14749,40.89715 -31.36654,42.17946 -66.56844,68.22704 -105.46592,78.0393 -20.45341,5.15957 -54.80483,7.3952 -84.49111,5.49877 z m 71.68198,-141.616 c 8.81405,-3.00482 14.90854,-7.15539 24.5129,-16.69419 20.70131,-20.55997 33.11264,-47.10021 36.43265,-77.90714 3.1742,-29.45387 -8.56683,-52.03612 -28.38987,-54.60399 -13.94203,-1.80605 -32.06155,7.00474 -44.46089,21.61954 -17.33661,20.43425 -28.65603,40.44547 -34.0615,60.21616 -1.6572,6.06128 -1.93054,9.10052 -1.92985,21.45828 8.6e-4,15.68816 0.91959,20.91566 5.21903,29.69628 4.23974,8.65868 10.55061,14.23339 19.15833,16.9235 5.84545,1.82683 17.07464,1.4886 23.5192,-0.70844 z"
           id="path5" />
      </g>
    </g>
  </g>
</svg>
